{
	"asset":{
		"generator":"Khronos glTF Blender I/O v4.3.47",
		"version":"2.0"
	},
	"scene":0,
	"scenes":[
		{
			"name":"Scene",
			"nodes":[
				2,
				3
			]
		}
	],
	"nodes":[
		{
			"name":"Bone"
		},
		{
			"mesh":0,
			"name":"Plane",
			"skin":0
		},
		{
			"children":[
				1,
				0
			],
			"name":"Armature"
		},
		{
			"mesh":1,
			"name":"Plane.001",
			"translation":[
				0.9373664855957031,
				0.5087850093841553,
				-2.7493607997894287
			]
		}
	],
	"meshes":[
		{
			"name":"Plane",
			"primitives":[
				{
					"attributes":{
						"POSITION":0,
						"NORMAL":1,
						"TEXCOORD_0":2,
						"TANGENT":3,
						"COLOR_0":4,
						"JOINTS_0":5,
						"WEIGHTS_0":6
					},
					"indices":7
				}
			]
		},
		{
			"name":"Plane.001",
			"primitives":[
				{
					"attributes":{
						"POSITION":9,
						"NORMAL":10,
						"TEXCOORD_0":11,
						"TANGENT":12
					},
					"indices":13
				}
			]
		}
	],
	"skins":[
		{
			"inverseBindMatrices":8,
			"joints":[
				0
			],
			"name":"Armature"
		}
	],
	"accessors":[
		{
			"bufferView":0,
			"componentType":5126,
			"count":3,
			"max":[
				1,
				0,
				1
			],
			"min":[
				-1,
				0,
				-1
			],
			"type":"VEC3"
		},
		{
			"bufferView":1,
			"componentType":5126,
			"count":3,
			"type":"VEC3"
		},
		{
			"bufferView":2,
			"componentType":5126,
			"count":3,
			"type":"VEC2"
		},
		{
			"bufferView":3,
			"componentType":5126,
			"count":3,
			"type":"VEC4"
		},
		{
			"bufferView":4,
			"componentType":5123,
			"count":3,
			"normalized":true,
			"type":"VEC4"
		},
		{
			"bufferView":5,
			"componentType":5121,
			"count":3,
			"type":"VEC4"
		},
		{
			"bufferView":6,
			"componentType":5126,
			"count":3,
			"type":"VEC4"
		},
		{
			"bufferView":7,
			"componentType":5123,
			"count":3,
			"type":"SCALAR"
		},
		{
			"bufferView":8,
			"componentType":5126,
			"count":1,
			"type":"MAT4"
		},
		{
			"bufferView":9,
			"componentType":5126,
			"count":4,
			"max":[
				1,
				0,
				1
			],
			"min":[
				-1,
				0,
				-1
			],
			"type":"VEC3"
		},
		{
			"bufferView":10,
			"componentType":5126,
			"count":4,
			"type":"VEC3"
		},
		{
			"bufferView":11,
			"componentType":5126,
			"count":4,
			"type":"VEC2"
		},
		{
			"bufferView":12,
			"componentType":5126,
			"count":4,
			"type":"VEC4"
		},
		{
			"bufferView":13,
			"componentType":5123,
			"count":6,
			"type":"SCALAR"
		}
	],
	"bufferViews":[
		{
			"buffer":0,
			"byteLength":36,
			"byteOffset":0,
			"target":34962
		},
		{
			"buffer":0,
			"byteLength":36,
			"byteOffset":36,
			"target":34962
		},
		{
			"buffer":0,
			"byteLength":24,
			"byteOffset":72,
			"target":34962
		},
		{
			"buffer":0,
			"byteLength":48,
			"byteOffset":96,
			"target":34962
		},
		{
			"buffer":0,
			"byteLength":24,
			"byteOffset":144,
			"target":34962
		},
		{
			"buffer":0,
			"byteLength":12,
			"byteOffset":168,
			"target":34962
		},
		{
			"buffer":0,
			"byteLength":48,
			"byteOffset":180,
			"target":34962
		},
		{
			"buffer":0,
			"byteLength":6,
			"byteOffset":228,
			"target":34963
		},
		{
			"buffer":0,
			"byteLength":64,
			"byteOffset":236
		},
		{
			"buffer":0,
			"byteLength":48,
			"byteOffset":300,
			"target":34962
		},
		{
			"buffer":0,
			"byteLength":48,
			"byteOffset":348,
			"target":34962
		},
		{
			"buffer":0,
			"byteLength":32,
			"byteOffset":396,
			"target":34962
		},
		{
			"buffer":0,
			"byteLength":64,
			"byteOffset":428,
			"target":34962
		},
		{
			"buffer":0,
			"byteLength":12,
			"byteOffset":492,
			"target":34963
		}
	],
	"buffers":[
		{
			"byteLength":504,
			"uri":"03-tri_and_sqr.bin"
		}
	]
}
