{
  "asset": {
    "version": "2.0",
    "generator": "fixture: 04-world_matrix (matrix overrides TRS)"
  },
  "scene": 0,
  "scenes": [
    { "name": "Scene", "nodes": [0] }
  ],
  "nodes": [
    {
      "name": "MatrixNode",
      "mesh": 0,

      "matrix": [
        2, 0, 0, 0,
        0, 3, 0, 0,
        0, 0, 4, 0,
        5, 6, 7, 1
      ],

      "translation": [100, 200, 300],
      "scale": [9, 9, 9],
      "rotation": [0, 0, 0, 1]
    }
  ],

  "meshes": [
    {
      "name": "Tri",
      "primitives": [
        {
          "attributes": { "POSITION": 0 },
          "indices": 1
        }
      ]
    }
  ],

  "accessors": [
    {
      "bufferView": 0,
      "componentType": 5126,
      "count": 3,
      "type": "VEC3",
      "min": [0, 0, 0],
      "max": [1, 1, 0]
    },
    {
      "bufferView": 1,
      "componentType": 5123,
      "count": 3,
      "type": "SCALAR"
    }
  ],

  "bufferViews": [
    { "buffer": 0, "byteOffset": 0,  "byteLength": 36, "target": 34962 },
    { "buffer": 0, "byteOffset": 36, "byteLength": 6,  "target": 34963 }
  ],

  "buffers": [
    { "uri": "04-world_matrix.bin", "byteLength": 42 }
  ]
}
